# xmcd CD database file
#
# Track frame offsets:
#	150
#	12157
#	29405
#	41750
#	53475
#	76947
#	116000
#	140622
#	156605
#	177377
#	194852
#	217110
#	232302
#	257300
#	274467
#	298570
#
# Disc length: 4233 seconds
#
# Revision: 12
# Processed by: cddbd v1.5.2PL0 Copyright (c) Steve Scherf et al.
# Submitted via: CDex 1.70beta3
#
DISCID=f9108710
DTITLE=B.B.King - Greatest Hits
DYEAR=1998
DGENRE=Blues
TTITLE0=Every Day I Have the Blues (live)
TTITLE1=Sweet Little Angel [aka "Black Angel Blues"] (live)
TTITLE2=How Blue Can You Get?
TTITLE3=Paying the Cost to Be the Boss
TTITLE4=Don't Answer the Door
TTITLE5=Why I Sing the Blues
TTITLE6=The Thrill Is Gone
TTITLE7=I Like to Live the Love
TTITLE8=Hummingbird
TTITLE9=To Know You Is to Love You
TTITLE10=Chains and Things
TTITLE11=Better Not Look Down
TTITLE12=Never Make a [Your] Move Too Soon
TTITLE13=There Must Be a Better World Somewhere
TTITLE14=Playin' with My Friends [with Robert Cray]
TTITLE15=When Love Comes to Town [with U2]
EXTD=YEAR: 1998
EXTT0=
EXTT1=
EXTT2=
EXTT3=
EXTT4=
EXTT5=
EXTT6=
EXTT7=
EXTT8=
EXTT9=
EXTT10=
EXTT11=
EXTT12=
EXTT13=
EXTT14=
EXTT15=
PLAYORDER=
